<?xml version="1.0" encoding="UTF-8" standalone="no"?>
<!DOCTYPE svg PUBLIC "-//W3C//DTD SVG 1.1//EN" "http://www.w3.org/Graphics/SVG/1.1/DTD/svg11.dtd">
<svg width="100%" height="100%" viewBox="0 0 720 703" version="1.1" xmlns="http://www.w3.org/2000/svg" xmlns:xlink="http://www.w3.org/1999/xlink" xml:space="preserve" xmlns:serif="http://www.serif.com/" style="fill-rule:evenodd;clip-rule:evenodd;stroke-linecap:round;stroke-linejoin:round;stroke-miterlimit:1.5;">
    <g transform="matrix(1,0,0,1,-484.398816,-1898.223849)">
        <g>
            <g>
                <g transform="matrix(-1,-0,0,-1,2522.857143,4432.090168)">
                    <path d="M1344.431,2262.412C1344.431,2262.412 1341.545,2209.304 1372.089,2170.506C1373.961,2168.129 1375.972,2165.865 1378.111,2163.726C1390.091,2151.582 1637.234,1904.439 1652.191,1889.481C1652.794,1888.879 1653.418,1888.299 1654.062,1887.742C1662.228,1881.069 1711.479,1843.86 1775.981,1866.129C1775.981,1866.129 1719.707,1814.79 1630.024,1849.955C1620.085,1853.816 1611.059,1859.703 1603.519,1867.242C1559.177,1911.42 1378.436,2092.162 1361.799,2108.799C1360.662,2109.935 1359.574,2111.12 1358.539,2112.35C1347.6,2125.383 1297.816,2191.307 1344.431,2262.412Z" style="stroke:black;stroke-width:12.17px;"/>
                </g>
                <g transform="matrix(1,0,0,1,-834.359933,66.663517)">
                    <path d="M1344.431,2262.412C1344.431,2262.412 1341.545,2209.304 1372.089,2170.506C1373.961,2168.129 1375.972,2165.865 1378.111,2163.726C1390.091,2151.582 1637.234,1904.439 1652.191,1889.481C1652.794,1888.879 1653.418,1888.299 1654.062,1887.742C1662.228,1881.069 1711.479,1843.86 1775.981,1866.129C1775.981,1866.129 1719.707,1814.79 1630.024,1849.955C1620.085,1853.816 1611.059,1859.703 1603.519,1867.242C1559.177,1911.42 1378.436,2092.162 1361.799,2108.799C1360.662,2109.935 1359.574,2111.12 1358.539,2112.35C1347.6,2125.383 1297.816,2191.307 1344.431,2262.412Z" style="stroke:black;stroke-width:12.17px;"/>
                </g>
            </g>
            <g transform="matrix(2.688119,0,0,2.688119,-1945.002358,-3208.399636)">
                <circle cx="1037.622" cy="2030.333" r="33.121" style="stroke:black;stroke-width:6.81px;stroke-linecap:butt;"/>
            </g>
        </g>
    </g>
</svg>
